<svg xmlns="http://www.w3.org/2000/svg" viewBox="0 0 19.37 19.21"><defs><style>.cls-1{fill:#979797;}</style></defs><title>Asset 9</title><g id="Layer_2" data-name="Layer 2"><g id="Me"><g id="Navigation"><path class="cls-1" d="M18.91,12.7h-2V9.09A7.18,7.18,0,0,0,10.2,1.93V.46A.47.47,0,0,0,9.74,0a.46.46,0,0,0-.46.46V1.92A7.19,7.19,0,0,0,2.44,9.09v2.35a.46.46,0,0,0,.92,0V9.09A6.27,6.27,0,0,1,9.62,2.83h.13A6.27,6.27,0,0,1,16,9.09V12.7H.46a.47.47,0,0,0-.46.46v2.67a.47.47,0,0,0,.46.46H18.91a.46.46,0,0,0,.46-.46V13.16A.46.46,0,0,0,18.91,12.7Zm-.45,2.67H.92V13.62H18.46Z"/><path class="cls-1" d="M11.34,16.65a.47.47,0,0,0-.46.46A1.18,1.18,0,0,1,9.7,18.29h0a1.18,1.18,0,0,1-1.18-1.18.46.46,0,0,0-.92,0,2.1,2.1,0,0,0,2.1,2.1h0a2.1,2.1,0,0,0,2.1-2.1A.46.46,0,0,0,11.34,16.65Z"/></g></g></g></svg>