<svg xmlns="http://www.w3.org/2000/svg" viewBox="0 0 21.02 17.36"><defs><style>.cls-1{fill:#979797;}</style></defs><title>Asset 4</title><g id="Layer_2" data-name="Layer 2"><g id="Me"><g id="Navigation"><path class="cls-1" d="M20.4,11a.48.48,0,0,0,.54-.38,6.74,6.74,0,0,0,.08-1,6,6,0,1,0-3,5.23l2.36.62a.46.46,0,0,0,.57-.57l-.68-2.58a.47.47,0,0,0-.9.24l.47,1.8L18,13.91a.44.44,0,0,0-.37.05,5.09,5.09,0,1,1,2.42-4.33,4.76,4.76,0,0,1-.07.84A.47.47,0,0,0,20.4,11Z"/><path class="cls-1" d="M11.69,15.82a7.82,7.82,0,0,1-7.07-.54.46.46,0,0,0-.36-.06l-3,.79.8-3A.47.47,0,0,0,2,12.62,7.75,7.75,0,0,1,13.7,2.78a.46.46,0,0,0,.6-.71A8.68,8.68,0,0,0,1.11,12.92l-1,3.63A.49.49,0,0,0,.27,17a.47.47,0,0,0,.45.12l3.59-.94a8.71,8.71,0,0,0,7.75.5.47.47,0,1,0-.37-.86Z"/></g></g></g></svg>