<svg xmlns="http://www.w3.org/2000/svg" viewBox="0 0 12.6 13.2"><defs><style>.a9b20437-79ea-4095-9515-91d8b00d58b6{fill:#b1b1b1;}</style></defs><title>Asset 2</title><g id="8cb5cc16-6402-43bf-b8d8-a94192bea61d" data-name="Layer 2"><g id="d09976ed-f5c8-4908-af73-9b8d640741f4" data-name="Layer 17"><path class="a9b20437-79ea-4095-9515-91d8b00d58b6" d="M12.5,4.9a.3.3,0,0,0-.4,0l-6.9,7a2.9,2.9,0,0,1-2,.7,2.6,2.6,0,0,1-1.9-.7,3,3,0,0,1-.8-2A2.7,2.7,0,0,1,1.3,8l7-7a1.9,1.9,0,0,1,2.7.1,1.9,1.9,0,0,1,.1,2.7L4.5,10.4a1,1,0,0,1-1.3,0,.9.9,0,0,1,0-1.3L7.6,4.6a.2.2,0,0,0,0-.3H7.3L2.8,8.7a1.5,1.5,0,0,0,0,2,1.4,1.4,0,0,0,2.1,0l6.5-6.5A2.3,2.3,0,0,0,11.3.8,2.3,2.3,0,0,0,7.9.7L.9,7.6A3.3,3.3,0,0,0,0,9.9a3.2,3.2,0,0,0,.9,2.3,3.7,3.7,0,0,0,2.3,1,3.3,3.3,0,0,0,2.3-1l7-6.9A.3.3,0,0,0,12.5,4.9Z"/></g></g></svg>