<svg xmlns="http://www.w3.org/2000/svg" xmlns:xlink="http://www.w3.org/1999/xlink" viewBox="0 0 40.29 46.28"><defs><style>.cls-1{fill:none;}.cls-2{clip-path:url(#clip-path);}.cls-3{fill:#02cebb;}.cls-4{fill:#f9704f;}.cls-5{fill:#ed86be;}.cls-6{fill:#9fd16a;}.cls-7{fill:#ffcd55;}.cls-8{fill:#4fbfe7;}</style><clipPath id="clip-path"><path class="cls-1" d="M22.62,1.47l15,8.68a5,5,0,0,1,2.5,4.33V31.84a5,5,0,0,1-2.5,4.33l-15,8.69a5,5,0,0,1-5,0l-15-8.69a5,5,0,0,1-2.5-4.33V14.48a5,5,0,0,1,2.5-4.33l15-8.68A5,5,0,0,1,22.62,1.47Z"/></clipPath></defs><title>Asset 7</title><g id="Layer_2" data-name="Layer 2"><g id="Me"><g id="Navigation"><g class="cls-2"><path class="cls-3" d="M32.16,16.34c.13.26.43.55.43.86V28.94c0,.38-.33.73-.53,1l8.16,4.78.07-23.13Z"/><path class="cls-4" d="M8.59,28.94V17.2c0-.32-.17-.62,0-.88L.22,11.57l0,23.14,8.49-4.78C8.48,29.64,8.59,29.3,8.59,28.94Z"/><path class="cls-5" d="M19.19,36.42,9,30.55a1.9,1.9,0,0,1-.68-.7L0,34.66,20,46.23V36.66A1.81,1.81,0,0,1,19.19,36.42Z"/><path class="cls-6" d="M21.05,9.72l10.17,5.87a1.94,1.94,0,0,1,.71.74l8.24-4.76L20.13,0V9.47A2,2,0,0,1,21.05,9.72Z"/><path class="cls-7" d="M9,15.66,19.19,9.79a1.84,1.84,0,0,1,.94-.25V0L.09,11.57l8.26,4.77A1.9,1.9,0,0,1,9,15.66Z"/><path class="cls-8" d="M31.84,30a1.87,1.87,0,0,1-.62.6l-.81.46v9.25l-8-4.62-1.35.78a1.79,1.79,0,0,1-1,.24v9.62l20-11.57Z"/></g></g></g></g></svg>