<svg xmlns="http://www.w3.org/2000/svg" viewBox="0 0 19.96 19.95"><defs><style>.cls-1{fill:#979797;}</style></defs><title>Asset 6</title><g id="Layer_2" data-name="Layer 2"><g id="Me"><g id="Navigation"><path class="cls-1" d="M17,2.92A10,10,0,0,0,.59,13.36a.42.42,0,0,0,.52.25.42.42,0,0,0,.25-.52,9.17,9.17,0,0,1,15.1-9.6,9.18,9.18,0,0,1,.16,12.8l-.06.06-.1.11a9.18,9.18,0,0,1-13,0l-.06-.06V16s0,0,0-.08a.86.86,0,0,1,0-.16.28.28,0,0,1,0-.09.76.76,0,0,1,0-.15s0-.07,0-.1,0-.09,0-.14,0-.07,0-.1a.51.51,0,0,1,0-.13s0-.07,0-.11l0-.13a.36.36,0,0,1,0-.1l0-.13,0-.1a.65.65,0,0,1,0-.13l0-.1,0-.12a.3.3,0,0,1,0-.1.56.56,0,0,1,0-.12,1,1,0,0,1,0-.1.61.61,0,0,1,0-.12l0-.1,0-.12,0-.09.06-.12a.41.41,0,0,1,0-.09l.06-.11a.47.47,0,0,1,.05-.1l.06-.11.06-.09.07-.1.06-.09.07-.11.06-.08.08-.1.06-.09.09-.1L5,12.05l.09-.1.07-.08.09-.09.07-.08.09-.09.08-.07.1-.09.07-.07.11-.09.07-.06.11-.09L6,11.08,6.14,11l.07-.06.13-.09.07,0,.17-.11,0,0,.21-.12.07,0L7,10.45l.09,0,.12-.05a4,4,0,0,0,5.48,0A6.63,6.63,0,0,1,16,13.66a.41.41,0,1,0,.74-.33,7.32,7.32,0,0,0-3.45-3.62A4,4,0,0,0,14,7.48a4,4,0,0,0-4-4,.41.41,0,1,0,0,.81,3.15,3.15,0,0,1,2.34,5.26h0a3.13,3.13,0,0,1-4.68,0h0a3.13,3.13,0,0,1,.12-4.35.41.41,0,0,0-.57-.58A4,4,0,0,0,6.7,9.71h0l-.1,0-.14.08-.1.05L6.22,10l-.1.06L6,10.11l-.1.07-.12.08-.1.07-.11.08-.1.08-.11.08a.39.39,0,0,1-.1.08l-.1.09-.09.08-.11.1L4.86,11l-.1.1-.08.09-.1.1-.08.09-.09.11-.08.08-.09.12-.07.09-.1.12L4,12a1.63,1.63,0,0,0-.11.17l0,0-.14.21,0,.08-.09.15a.41.41,0,0,1,0,.09l-.07.13-.05.1-.07.14-.05.1-.06.13s0,.08,0,.11l-.06.13,0,.12s0,.08-.05.13,0,.07,0,.11,0,.09,0,.14,0,.07,0,.11a.74.74,0,0,1,0,.14l0,.12,0,.14,0,.11,0,.15a.36.36,0,0,0,0,.11l0,.15a.36.36,0,0,1,0,.11.78.78,0,0,1,0,.16s0,.07,0,.11a.86.86,0,0,0,0,.16.41.41,0,0,0,0,.11,1.09,1.09,0,0,0,0,.18.28.28,0,0,0,0,.09v.56s0,.05,0,.07h0a.14.14,0,0,1,0,.06h0l0,.05h0l0,.05h0l0,0,.12.13A10,10,0,0,0,17,17a.8.8,0,0,0,.13-.13l.05,0A10,10,0,0,0,17,2.92Z"/></g></g></g></svg>