<svg xmlns="http://www.w3.org/2000/svg" viewBox="0 0 13.5 13.5"><defs><style>.\34 b5682e6-d008-4c89-aaf7-48cc5ab2cc11{fill:#b1b1b1;}</style></defs><title>Asset 1</title><g id="bd52b41b-5326-4f4e-9084-69513cf9e64a" data-name="Layer 2"><g id="c0f83e20-84d8-4dd7-9cc1-8ecbd92c0f81" data-name="Layer 17"><path class="4b5682e6-d008-4c89-aaf7-48cc5ab2cc11" d="M6.8,13.5a6.8,6.8,0,1,1,6.7-6.7A6.7,6.7,0,0,1,6.8,13.5ZM6.8.4A6.4,6.4,0,0,0,.4,6.8a6.4,6.4,0,0,0,6.4,6.3,6.3,6.3,0,0,0,6.3-6.3A6.4,6.4,0,0,0,6.8.4Z"/><path class="4b5682e6-d008-4c89-aaf7-48cc5ab2cc11" d="M6.8,9.9A5.4,5.4,0,0,1,4,9.1H3.8a.4.4,0,0,1-.1-.3h.5a4.9,4.9,0,0,0,5.2,0h.4a.2.2,0,0,1,0,.3H9.6A5.7,5.7,0,0,1,6.8,9.9Z"/><path class="4b5682e6-d008-4c89-aaf7-48cc5ab2cc11" d="M5.8,5.5H5.7l-.9-.8L4,5.4H3.8a.2.2,0,0,1,0-.3l.9-.9a.2.2,0,0,1,.3,0l.9.9a.2.2,0,0,1,0,.3Z"/><path class="4b5682e6-d008-4c89-aaf7-48cc5ab2cc11" d="M9.7,5.5H9.5l-.8-.8-.8.8H7.6a.2.2,0,0,1,0-.3l1-.9c0-.1.2-.1.2,0l1,.9a.2.2,0,0,1,0,.3Z"/></g></g></svg>