<svg xmlns="http://www.w3.org/2000/svg" viewBox="0 0 20.24 20.24"><defs><style>.cls-1{fill:#979797;}</style></defs><title>Asset 6</title><g id="Layer_2" data-name="Layer 2"><g id="Me"><g id="Navigation"><path class="cls-1" d="M10.12,0A10.12,10.12,0,1,0,20.24,10.12,10.13,10.13,0,0,0,10.12,0Zm0,19.59a9.49,9.49,0,0,1-8.91-6.27l11,0-2,2,.49.5L13.59,13l-2.88-2.87-.49.5,2,2L1,12.62a9.37,9.37,0,0,1-.34-2.5A9.47,9.47,0,0,1,19,6.92l-11,0,2-2-.5-.5L6.71,7.25l2.87,2.87.5-.5-2-2,11.2,0a9.46,9.46,0,0,1-9.13,12Z"/></g></g></g></svg>