<svg xmlns="http://www.w3.org/2000/svg" viewBox="0 0 12.55 13.16"><defs><style>.cls-1{fill:#b1b1b1;}</style></defs><title>attachment</title><g id="Layer_2" data-name="Layer 2"><g id="Me"><g id="body"><g id="content"><g id="chat"><path class="cls-1" d="M12.48,4.9a.25.25,0,0,0-.36,0l-7,7A2.72,2.72,0,0,1,.51,9.92,2.69,2.69,0,0,1,1.3,8l7-7a1.88,1.88,0,0,1,2.7.1,1.87,1.87,0,0,1,.1,2.7L4.53,10.38A.94.94,0,0,1,3.2,9.05L7.63,4.62a.25.25,0,0,0-.36-.36L2.84,8.69a1.45,1.45,0,0,0,2.05,2.05L11.42,4.2a2.37,2.37,0,0,0-.1-3.42A2.37,2.37,0,0,0,7.9.68l-7,7a3.24,3.24,0,0,0,4.58,4.57l7-7A.25.25,0,0,0,12.48,4.9Z"/></g></g></g></g></g></svg>