<svg xmlns="http://www.w3.org/2000/svg" viewBox="0 0 13.55 13.55"><defs><style>.cls-1{fill:#b1b1b1;}</style></defs><title>emoji</title><g id="Layer_2" data-name="Layer 2"><g id="Me"><g id="body"><g id="content"><g id="chat"><path class="cls-1" d="M6.77,13.55a6.78,6.78,0,1,1,6.78-6.78A6.78,6.78,0,0,1,6.77,13.55ZM6.77.41a6.37,6.37,0,1,0,6.37,6.36A6.38,6.38,0,0,0,6.77.41Z"/><path class="cls-1" d="M6.77,9.89A5.43,5.43,0,0,1,4,9.09L3.79,9a.21.21,0,0,1-.07-.29A.21.21,0,0,1,4,8.64l.17.1a4.94,4.94,0,0,0,5.21,0l.17-.1a.21.21,0,0,1,.28.06A.21.21,0,0,1,9.76,9l-.16.1A5.44,5.44,0,0,1,6.77,9.89Z"/><path class="cls-1" d="M5.8,5.48a.2.2,0,0,1-.14-.06l-.81-.81L4,5.42a.21.21,0,1,1-.29-.29l1-1a.21.21,0,0,1,.29,0l1,1a.21.21,0,0,1-.15.35Z"/><path class="cls-1" d="M9.65,5.48a.2.2,0,0,1-.14-.06L8.7,4.61l-.81.81a.21.21,0,1,1-.29-.29l1-1a.22.22,0,0,1,.3,0l1,1a.21.21,0,0,1-.15.35Z"/></g></g></g></g></g></svg>