<svg xmlns="http://www.w3.org/2000/svg" viewBox="0 0 12.2 12.2"><defs><style>.\30 faea1ea-5033-4b4b-aeb0-7e4f97955c17{fill:#b1b1b1;}</style></defs><title>Asset 3</title><g id="078a280a-8a50-4c57-b6e2-df2ca1169610" data-name="Layer 2"><g id="ce93e013-de75-4a96-b495-9db0c1db9cd5" data-name="Layer 17"><path class="0faea1ea-5033-4b4b-aeb0-7e4f97955c17" d="M0,10.9a1.3,1.3,0,0,0,1.3,1.3h9.6a1.3,1.3,0,0,0,1.3-1.3V1.3A1.3,1.3,0,0,0,10.9,0H1.3A1.3,1.3,0,0,0,0,1.3Zm10.9.7H1.3a.7.7,0,0,1-.7-.7V9.3L2.9,7l2,2h.4L8.9,5.4l2.7,2.7v2.8A.7.7,0,0,1,10.9,11.6ZM1.3.6h9.6a.7.7,0,0,1,.7.7V7.2L9.1,4.7a.3.3,0,0,0-.4,0L5.1,8.3l-2-2H2.7L.6,8.4V1.3A.7.7,0,0,1,1.3.6Z"/><path class="0faea1ea-5033-4b4b-aeb0-7e4f97955c17" d="M3.8,4.9A1.6,1.6,0,0,0,5.3,3.3,1.5,1.5,0,0,0,3.8,1.8,1.6,1.6,0,0,0,2.2,3.3,1.6,1.6,0,0,0,3.8,4.9Zm0-2.5a.9.9,0,0,1,.9.9.9.9,0,0,1-.9,1,1,1,0,0,1-1-1A1,1,0,0,1,3.8,2.4Z"/></g></g></svg>