<svg xmlns="http://www.w3.org/2000/svg" viewBox="0 0 12.2 12.2"><defs><style>.cls-1{fill:#b1b1b1;}</style></defs><title>picture</title><g id="Layer_2" data-name="Layer 2"><g id="Me"><g id="body"><g id="content"><g id="chat"><path class="cls-1" d="M0,10.91A1.29,1.29,0,0,0,1.29,12.2h9.62a1.29,1.29,0,0,0,1.29-1.29V1.29A1.29,1.29,0,0,0,10.91,0H1.29A1.29,1.29,0,0,0,0,1.29Zm10.91.68H1.29a.68.68,0,0,1-.68-.68V9.3L2.92,7l2,2a.3.3,0,0,0,.43,0L8.9,5.4l2.69,2.68v2.83A.69.69,0,0,1,10.91,11.59ZM1.29.61h9.62a.68.68,0,0,1,.68.68V7.22L9.11,4.75a.3.3,0,0,0-.43,0L5.11,8.32l-2-2a.3.3,0,0,0-.43,0L.61,8.44V1.29A.67.67,0,0,1,1.29.61Z"/><path class="cls-1" d="M3.78,4.89A1.56,1.56,0,1,0,2.23,3.33,1.55,1.55,0,0,0,3.78,4.89Zm0-2.5a.95.95,0,1,1-.94.94A.95.95,0,0,1,3.78,2.39Z"/></g></g></g></g></g></svg>