<svg xmlns="http://www.w3.org/2000/svg" viewBox="0 0 23.05 23.05"><defs><style>.cls-1{fill:#979797;}</style></defs><title>Asset 5</title><g id="Layer_2" data-name="Layer 2"><g id="Me"><g id="Navigation"><path class="cls-1" d="M21.87,9.11l-1.62-.28a8.25,8.25,0,0,0-.65-1.57l1-1.33a1.43,1.43,0,0,0-.16-1.84L19,2.66a1.42,1.42,0,0,0-1-.42,1.4,1.4,0,0,0-.82.26l-1.34,1a8.6,8.6,0,0,0-1.63-.67l-.27-1.6A1.42,1.42,0,0,0,12.5,0h-2A1.43,1.43,0,0,0,9.06,1.19L8.78,2.83a8.9,8.9,0,0,0-1.56.66l-1.33-1a1.43,1.43,0,0,0-.82-.26,1.41,1.41,0,0,0-1,.42L2.62,4.12A1.43,1.43,0,0,0,2.47,6l1,1.35a8.49,8.49,0,0,0-.64,1.57l-1.6.27A1.43,1.43,0,0,0,0,10.56v2A1.41,1.41,0,0,0,1.19,14l1.64.28a9,9,0,0,0,.66,1.57l-1,1.32A1.41,1.41,0,0,0,2.69,19l1.44,1.44a1.4,1.4,0,0,0,1,.42A1.37,1.37,0,0,0,6,20.58l1.35-1a10.58,10.58,0,0,0,1.52.63l.27,1.61a1.43,1.43,0,0,0,1.41,1.19h2A1.43,1.43,0,0,0,14,21.86l.27-1.61a9,9,0,0,0,1.57-.66l1.33,1a1.46,1.46,0,0,0,.83.26h0a1.42,1.42,0,0,0,1-.42L20.39,19a1.43,1.43,0,0,0,.16-1.84l-1-1.33a9.33,9.33,0,0,0,.66-1.57L21.86,14a1.43,1.43,0,0,0,1.19-1.41v-2A1.39,1.39,0,0,0,21.87,9.11Zm-.11,3.43a.13.13,0,0,1-.1.13l-2,.33a.67.67,0,0,0-.52.48,7.75,7.75,0,0,1-.83,2,.66.66,0,0,0,0,.7l1.19,1.68a.12.12,0,0,1,0,.16L18,19.48a.12.12,0,0,1-.09,0,.09.09,0,0,1-.07,0L16.21,18.3a.67.67,0,0,0-.71,0,7.75,7.75,0,0,1-2,.83.64.64,0,0,0-.47.52l-.34,2a.13.13,0,0,1-.13.1h-2a.12.12,0,0,1-.12-.1l-.34-2a.66.66,0,0,0-.48-.52,7.51,7.51,0,0,1-2-.81.76.76,0,0,0-.33-.08.63.63,0,0,0-.37.12l-1.69,1.2-.07,0a.1.1,0,0,1-.09,0L3.61,18.09a.14.14,0,0,1,0-.17l1.18-1.66a.65.65,0,0,0,0-.71,8.26,8.26,0,0,1-.85-2,.64.64,0,0,0-.52-.48l-2-.35a.12.12,0,0,1-.11-.12v-2a.12.12,0,0,1,.11-.12l2-.34a.64.64,0,0,0,.53-.48,7.93,7.93,0,0,1,.82-2,.64.64,0,0,0,0-.7L3.53,5.21a.15.15,0,0,1,0-.17L5,3.61a.1.1,0,0,1,.09,0l.07,0L6.8,4.78a.67.67,0,0,0,.72,0,7.28,7.28,0,0,1,2-.85A.67.67,0,0,0,10,3.44l.34-2a.13.13,0,0,1,.13-.1h2a.12.12,0,0,1,.12.1l.34,2a.64.64,0,0,0,.48.52,8.14,8.14,0,0,1,2.07.85.64.64,0,0,0,.7,0l1.67-1.19a.09.09,0,0,1,.07,0,.14.14,0,0,1,.09,0L19.48,5a.12.12,0,0,1,0,.16L18.31,6.84a.65.65,0,0,0,0,.71,7.45,7.45,0,0,1,.84,2,.64.64,0,0,0,.52.48l2,.34a.13.13,0,0,1,.11.12v2Z"/><path class="cls-1" d="M11.53,6.55a5,5,0,1,0,5,5A5,5,0,0,0,11.53,6.55Zm0,8.65a3.68,3.68,0,1,1,3.67-3.68A3.68,3.68,0,0,1,11.53,15.2Z"/></g></g></g></svg>